<?xml version="1.0" encoding="iso-8859-1"?>
<!-- Uploaded to: SVG Repo, www.svgrepo.com, Generator: SVG Repo Mixer Tools -->
<svg version="1.1" id="Layer_1" xmlns="http://www.w3.org/2000/svg" xmlns:xlink="http://www.w3.org/1999/xlink" 
	 viewBox="0 0 512 512" xml:space="preserve">
<rect x="16.568" y="400.942" style="fill:#FDDD85;" width="119.716" height="94.063"/>
<polygon style="fill:#FDD042;" points="33.67,477.902 33.67,400.942 16.568,400.942 16.568,495.005 136.284,495.005 
	136.284,477.902 "/>
<rect x="375.716" y="400.942" style="fill:#F07B52;" width="119.716" height="94.063"/>
<polygon style="fill:#E5563C;" points="392.818,477.902 392.818,400.942 375.716,400.942 375.716,495.005 495.432,495.005 
	495.432,477.902 "/>
<rect x="324.409" y="306.879" style="fill:#FDDD85;" width="119.716" height="94.063"/>
<polygon style="fill:#FDD042;" points="341.511,383.84 341.511,306.879 324.409,306.879 324.409,400.942 444.125,400.942 
	444.125,383.84 "/>
<rect x="256" y="400.942" style="fill:#FDDD85;" width="119.716" height="94.063"/>
<polygon style="fill:#FDD042;" points="273.102,477.902 273.102,400.942 256,400.942 256,495.005 375.716,495.005 375.716,477.902 
	"/>
<rect x="59.324" y="84.549" style="fill:#9B9DA1;" width="51.307" height="51.307"/>
<rect x="59.324" y="84.549" style="fill:#88898E;" width="17.102" height="51.307"/>
<rect x="307.307" y="170.061" style="fill:#F07B52;" width="119.716" height="94.063"/>
<polygon style="fill:#E5563C;" points="324.409,247.021 324.409,170.061 307.307,170.061 307.307,264.124 427.023,264.124 
	427.023,247.021 "/>
<rect x="161.937" y="41.794" style="fill:#74DBC9;" width="68.409" height="42.756"/>
<rect x="161.937" y="41.794" style="fill:#6AC8B7;" width="17.102" height="42.756"/>
<path d="M503.983,487.522h-1.069v-86.58c0-4.427-3.055-7.482-7.482-7.482h-43.825v-86.58c0-4.427-3.055-7.482-7.482-7.482h-25.653
	c-4.427,0-8.017,3.589-8.017,8.017s3.589,8.017,8.017,8.017h17.102v78.029H331.891V315.43h52.376c4.427,0,8.017-3.589,8.017-8.017
	s-3.589-8.017-8.017-8.017h-59.858c-4.427,0-8.551,3.055-8.551,7.482v86.58H256c-4.427,0-8.551,3.055-8.551,7.482v86.58h-9.62
	V93.101h120.785v30.079l-56.501,40.358c-2.079,1.485-3.357,3.969-3.357,6.523v94.063c0,4.427,4.124,8.551,8.551,8.551h119.716
	c4.427,0,7.482-4.124,7.482-8.551v-94.063c0-2.555-1.278-5.039-3.357-6.523l-56.501-40.358V93.101h35.273
	c4.427,0,8.017-3.589,8.017-8.017s-3.589-8.017-8.017-8.017h-41.212L199.12,8.964c-2.323-0.934-5.048-0.562-7.179,0.749
	L82.709,77.067h-57.59c-4.427,0-8.017,3.589-8.017,8.017s3.589,8.017,8.017,8.017h25.653v42.756c0,4.427,4.124,8.551,8.551,8.551
	h51.307c4.427,0,7.482-4.124,7.482-8.551V93.101h35.273v394.422h-9.62v-86.58c0-4.427-3.055-7.482-7.482-7.482H16.568
	c-4.427,0-8.551,3.055-8.551,7.482v86.58l0,0c-4.427,0-8.017,3.589-8.017,8.017c0,4.427,3.589,8.017,8.017,8.017h495.967
	c4.427,0,8.017-3.589,8.017-8.017C512,491.112,508.411,487.522,503.983,487.522z M113.3,77.067l40.087-25.533v25.533H113.3z
	 M196.908,25.615l21.74,8.695h-35.871L196.908,25.615z M221.795,445.949v29.701l-14.851-14.85L221.795,445.949z M196.142,449.462
	l-22.868-22.867l22.868-22.868l22.868,22.868L196.142,449.462z M206.944,392.391l14.851-14.851v29.701L206.944,392.391z
	 M196.142,381.053l-22.868-22.867l22.868-22.868l22.868,22.868L196.142,381.053z M206.944,323.982l14.851-14.851v29.701
	L206.944,323.982z M196.142,312.644l-22.868-22.867l22.868-22.868l22.868,22.868L196.142,312.644z M206.944,255.572l14.851-14.851
	v29.701L206.944,255.572z M196.142,244.235l-22.868-22.867l22.868-22.868l22.868,22.868L196.142,244.235z M206.944,187.163
	l14.851-14.851v29.701L206.944,187.163z M196.142,175.825l-22.868-22.867l22.868-22.868l22.868,22.868L196.142,175.825z
	 M206.944,118.754l14.851-14.851v29.701L206.944,118.754z M221.795,77.067H169.42V50.345h52.376V77.067z M210.993,93.101
	l-14.851,14.85l-14.851-14.85H210.993z M238.09,41.927l87.448,35.14h-87.709V41.794C237.829,41.748,238.09,41.972,238.09,41.927z
	 M184.271,118.754l-14.851,14.85v-29.701L184.271,118.754z M184.271,187.163l-14.851,14.85v-29.701L184.271,187.163z
	 M184.271,255.572l-14.851,14.85v-29.701L184.271,255.572z M184.271,323.982l-14.851,14.85V309.13L184.271,323.982z
	 M184.271,392.391l-14.851,14.85V377.54L184.271,392.391z M184.271,460.8l-14.851,14.85v-29.701L184.271,460.8z M196.142,472.671
	l14.851,14.851h-29.701L196.142,472.671z M367.165,137.69l34.842,24.887h-69.684L367.165,137.69z M418.472,256.641H314.789v-78.029
	h103.683V256.641z M102.079,128.374H66.806V93.101h35.273V128.374z M24.05,487.522v-78.029h103.683v78.029H24.05z M263.482,409.493
	h103.683v78.029H263.482V409.493z M383.198,487.522v-78.029h103.683v78.029H383.198z"/>
<path d="M75.891,418.579c-4.427,0-8.017,3.589-8.017,8.017v42.756c0,4.427,3.589,8.017,8.017,8.017s8.017-3.589,8.017-8.017v-42.756
	C83.908,422.168,80.319,418.579,75.891,418.579z"/>
<path d="M101.545,418.579c-4.427,0-8.017,3.589-8.017,8.017v42.756c0,4.427,3.589,8.017,8.017,8.017
	c4.427,0,8.017-3.589,8.017-8.017v-42.756C109.562,422.168,105.972,418.579,101.545,418.579z"/>
<path d="M50.238,418.579c-4.427,0-8.017,3.589-8.017,8.017v42.756c0,4.427,3.589,8.017,8.017,8.017s8.017-3.589,8.017-8.017v-42.756
	C58.255,422.168,54.665,418.579,50.238,418.579z"/>
<path d="M435.04,418.579c-4.427,0-8.017,3.589-8.017,8.017v42.756c0,4.427,3.589,8.017,8.017,8.017c4.427,0,8.017-3.589,8.017-8.017
	v-42.756C443.056,422.168,439.467,418.579,435.04,418.579z"/>
<path d="M460.693,418.579c-4.427,0-8.017,3.589-8.017,8.017v42.756c0,4.427,3.589,8.017,8.017,8.017
	c4.427,0,8.017-3.589,8.017-8.017v-42.756C468.71,422.168,465.12,418.579,460.693,418.579z"/>
<path d="M409.386,418.579c-4.427,0-8.017,3.589-8.017,8.017v42.756c0,4.427,3.589,8.017,8.017,8.017s8.017-3.589,8.017-8.017
	v-42.756C417.403,422.168,413.814,418.579,409.386,418.579z"/>
<path d="M383.733,324.516c-4.427,0-8.017,3.589-8.017,8.017v42.756c0,4.427,3.589,8.017,8.017,8.017
	c4.427,0,8.017-3.589,8.017-8.017v-42.756C391.749,328.105,388.16,324.516,383.733,324.516z"/>
<path d="M401.37,375.288c0,4.427,3.589,8.017,8.017,8.017s8.017-3.589,8.017-8.017v-42.756c0-4.427-3.589-8.017-8.017-8.017
	s-8.017,3.589-8.017,8.017V375.288z"/>
<path d="M350.063,332.533v42.756c0,4.427,3.589,8.017,8.017,8.017c4.427,0,8.017-3.589,8.017-8.017v-42.756
	c0-4.427-3.589-8.017-8.017-8.017C353.652,324.516,350.063,328.105,350.063,332.533z"/>
<path d="M315.324,418.579c-4.427,0-8.017,3.589-8.017,8.017v42.756c0,4.427,3.589,8.017,8.017,8.017
	c4.427,0,8.017-3.589,8.017-8.017v-42.756C323.34,422.168,319.751,418.579,315.324,418.579z"/>
<path d="M340.977,418.579c-4.427,0-8.017,3.589-8.017,8.017v42.756c0,4.427,3.589,8.017,8.017,8.017
	c4.427,0,8.017-3.589,8.017-8.017v-42.756C348.994,422.168,345.404,418.579,340.977,418.579z"/>
<path d="M289.67,418.579c-4.427,0-8.017,3.589-8.017,8.017v42.756c0,4.427,3.589,8.017,8.017,8.017c4.427,0,8.017-3.589,8.017-8.017
	v-42.756C297.687,422.168,294.098,418.579,289.67,418.579z"/>
<path d="M366.63,246.487c4.427,0,8.017-3.589,8.017-8.017v-42.756c0-4.427-3.589-8.017-8.017-8.017
	c-4.427,0-8.017,3.589-8.017,8.017v42.756C358.614,242.897,362.203,246.487,366.63,246.487z"/>
<path d="M392.284,246.487c4.427,0,8.017-3.589,8.017-8.017v-42.756c0-4.427-3.589-8.017-8.017-8.017s-8.017,3.589-8.017,8.017
	v42.756C384.267,242.897,387.857,246.487,392.284,246.487z"/>
<path d="M340.977,246.487c4.427,0,8.017-3.589,8.017-8.017v-42.756c0-4.427-3.589-8.017-8.017-8.017
	c-4.427,0-8.017,3.589-8.017,8.017v42.756C332.96,242.897,336.55,246.487,340.977,246.487z"/>
</svg>